<svg width="290" height="290" viewBox="0 0 290 290" fill="none" xmlns="http://www.w3.org/2000/svg">
<path d="M275.605 137.88L266.824 133.121C266.157 132.759 265.794 131.999 265.92 131.23C266.514 127.636 266.815 123.956 266.815 120.293C266.815 116.63 266.514 112.951 265.92 109.357C265.793 108.587 266.157 107.827 266.824 107.465L275.605 102.708C278.021 101.399 279.783 99.2269 280.565 96.5926C281.348 93.9588 281.058 91.1772 279.749 88.762L269.992 70.7571C267.289 65.7705 261.033 63.9121 256.046 66.6144L247.257 71.3773C246.59 71.7398 245.761 71.6339 245.197 71.1162C238.399 64.8772 230.551 60.1942 221.868 57.1962C221.108 56.934 220.598 56.2452 220.598 55.4828V45.5056C220.598 39.833 215.983 35.2185 210.311 35.2185H189.833C184.161 35.2185 179.546 39.833 179.546 45.5056V55.4828C179.546 56.2452 179.035 56.934 178.276 57.1962C169.593 60.1942 161.744 64.8778 154.947 71.1162C154.383 71.6345 153.554 71.7392 152.887 71.3773L144.097 66.6138C139.11 63.9115 132.855 65.771 130.152 70.7577L120.395 88.762C119.086 91.1777 118.796 93.9588 119.579 96.5926C119.898 97.6665 120.387 98.6577 121.009 99.5504H66.9402C64.5936 99.5504 62.691 101.452 62.691 103.8C62.691 106.146 64.5936 108.049 66.9402 108.049H201.541C201.788 108.049 201.989 108.25 201.989 108.497V132.539H17.5026V108.497C17.5026 108.25 17.7036 108.049 17.9506 108.049H47.6778C50.0245 108.049 51.927 106.147 51.927 103.8C51.927 101.453 50.0245 99.5509 47.6778 99.5509H17.9506C13.0177 99.5509 9.00476 103.564 9.00476 108.497V136.788C9.00476 136.818 9.00873 136.847 9.00929 136.876C9.01043 136.924 9.01382 136.971 9.01666 137.019C9.02458 137.17 9.04044 137.32 9.06423 137.467C9.0699 137.502 9.07386 137.537 9.08009 137.572C9.11464 137.756 9.15996 137.935 9.21716 138.11C9.22453 138.133 9.23416 138.155 9.24208 138.178C9.29703 138.336 9.36103 138.49 9.43353 138.638C9.44826 138.669 9.46242 138.7 9.47828 138.731C9.56324 138.896 9.65726 139.054 9.76261 139.206C9.7796 139.231 9.79886 139.254 9.81642 139.278C9.91328 139.412 10.0181 139.539 10.1296 139.66C10.1461 139.679 10.1585 139.699 10.1755 139.716L86.6183 220.038C87.4107 220.871 87.8468 221.962 87.8468 223.111V266.159C87.8468 268.751 89.2487 271.154 91.5041 272.43L120.888 289.054C122.002 289.684 123.221 289.999 124.438 289.999C125.686 289.999 126.933 289.668 128.067 289.008C130.306 287.702 131.642 285.375 131.642 282.783V262.078C131.642 259.731 129.74 257.829 127.393 257.829C125.047 257.829 123.144 259.731 123.144 262.078V280.567L96.344 265.405V223.111C96.344 219.771 95.0759 216.599 92.7729 214.18L23.1627 141.037H196.328L187.751 150.049C187.742 150.059 187.734 150.068 187.725 150.077L126.716 214.181C124.413 216.6 123.145 219.772 123.145 223.112V242.251C123.145 244.597 125.048 246.5 127.394 246.5C129.741 246.5 131.644 244.598 131.644 242.251V223.112C131.644 221.963 132.08 220.872 132.872 220.04L170.74 180.25C173.188 181.448 175.709 182.506 178.276 183.392C179.035 183.654 179.546 184.343 179.546 185.105V195.082C179.546 200.755 184.161 205.369 189.833 205.369H210.311C215.983 205.369 220.598 200.755 220.598 195.082V185.105C220.598 184.343 221.108 183.654 221.868 183.392C230.552 180.393 238.401 175.71 245.197 169.472C245.762 168.954 246.59 168.85 247.257 169.21L256.047 173.974C261.033 176.676 267.289 174.817 269.992 169.83L279.748 151.825C281.057 149.409 281.347 146.628 280.564 143.995C279.782 141.36 278.021 139.189 275.605 137.88ZM272.277 147.776L262.52 165.78C262.05 166.648 260.963 166.971 260.094 166.502L251.306 161.739C247.451 159.65 242.686 160.24 239.45 163.21C233.518 168.656 226.669 172.744 219.094 175.359C214.91 176.804 212.1 180.72 212.1 185.105V195.082C212.1 196.069 211.297 196.871 210.311 196.871H189.833C188.846 196.871 188.043 196.069 188.043 195.082V185.105C188.043 180.72 185.233 176.804 181.049 175.359C179.658 174.878 178.284 174.334 176.929 173.747L192.164 157.739C194.753 158.283 197.402 158.558 200.072 158.558C206.84 158.558 213.493 156.766 219.311 153.377C221.339 152.196 222.025 149.594 220.844 147.566C219.662 145.539 217.061 144.854 215.033 146.034C210.512 148.667 205.339 150.06 200.072 150.06C199.875 150.06 199.678 150.054 199.481 150.05L209.315 139.717C209.332 139.7 209.344 139.679 209.361 139.661C209.472 139.54 209.577 139.412 209.674 139.279C209.692 139.254 209.711 139.231 209.728 139.207C209.833 139.055 209.927 138.896 210.012 138.732C210.028 138.701 210.042 138.67 210.057 138.639C210.129 138.49 210.193 138.337 210.248 138.179C210.256 138.155 210.266 138.133 210.273 138.11C210.33 137.936 210.376 137.756 210.41 137.572C210.417 137.538 210.421 137.502 210.426 137.467C210.45 137.321 210.466 137.171 210.474 137.02C210.477 136.972 210.48 136.925 210.481 136.877C210.482 136.847 210.486 136.818 210.486 136.788V108.497C210.486 103.564 206.473 99.5515 201.54 99.5515H178.724C184.26 93.8631 191.93 90.5281 200.071 90.5281C216.484 90.5281 229.838 103.881 229.838 120.294C229.838 124.971 228.786 129.444 226.711 133.591C225.662 135.69 226.512 138.243 228.61 139.292C229.221 139.598 229.869 139.743 230.508 139.743C232.066 139.742 233.567 138.882 234.312 137.394C236.982 132.056 238.336 126.303 238.336 120.295C238.336 99.1958 221.17 82.0308 200.071 82.0308C187.031 82.0308 174.932 88.6839 167.912 99.5521H136.548L128.586 95.2372C128.019 94.9302 127.803 94.4391 127.724 94.1746C127.645 93.909 127.559 93.3794 127.866 92.8124L137.623 74.8086C138.093 73.9409 139.181 73.618 140.049 74.087L148.837 78.8499C152.692 80.9394 157.457 80.3492 160.693 77.3784C166.625 71.933 173.474 67.8452 181.05 65.2295C185.233 63.7858 188.043 59.8685 188.043 55.484V45.5056C188.043 44.5189 188.846 43.7163 189.833 43.7163H210.311C211.297 43.7163 212.1 44.5189 212.1 45.5056V55.4828C212.1 59.8674 214.91 63.7835 219.094 65.2284C226.668 67.8441 233.517 71.9318 239.451 77.3773C242.686 80.3475 247.45 80.9383 251.306 78.8488L260.095 74.0864C260.963 73.6157 262.051 73.9392 262.521 74.8069L272.277 92.8113C272.585 93.3782 272.498 93.9078 272.419 94.1735C272.341 94.4385 272.124 94.9291 271.557 95.2366L262.776 99.995C258.925 102.082 256.819 106.401 257.536 110.743C258.055 113.88 258.318 117.094 258.318 120.294C258.318 123.494 258.055 126.707 257.536 129.845C256.819 134.187 258.924 138.506 262.775 140.593L271.556 145.352C272.123 145.659 272.339 146.15 272.418 146.414C272.498 146.68 272.584 147.209 272.277 147.776Z" fill="#E0E0E0"/>
<path d="M13.2533 43.0049C15.6 43.0049 17.5025 41.1029 17.5025 38.7557V19.9726C17.5025 17.6259 15.6 15.7234 13.2533 15.7234C10.9067 15.7234 9.00415 17.6254 9.00415 19.9726V38.7557C9.00472 41.1029 10.9067 43.0049 13.2533 43.0049Z" fill="#E0E0E0"/>
<path d="M84.3815 87.6554C86.7281 87.6554 88.6307 85.7534 88.6307 83.4062V64.6225C88.6307 62.2759 86.7281 60.3733 84.3815 60.3733C82.0349 60.3733 80.1323 62.2753 80.1323 64.6225V83.4062C80.1323 85.7534 82.0349 87.6554 84.3815 87.6554Z" fill="#E0E0E0"/>
<path d="M66.2865 27.281C68.6332 27.281 70.5357 25.379 70.5357 23.0318V4.24918C70.5357 1.90256 68.6332 0 66.2865 0C63.9399 0 62.0374 1.90199 62.0374 4.24918V23.0323C62.0374 25.379 63.9399 27.281 66.2865 27.281Z" fill="#E0E0E0"/>
<path d="M152.739 36.6731C155.086 36.6731 156.989 34.7711 156.989 32.4239V13.6408C156.989 11.2942 155.086 9.3916 152.739 9.3916C150.393 9.3916 148.49 11.2936 148.49 13.6408V32.4239C148.491 34.7711 150.393 36.6731 152.739 36.6731Z" fill="#E0E0E0"/>
<path d="M46.7812 67.5672C54.7522 67.5672 61.237 61.0825 61.237 53.112C61.237 45.1415 54.7522 38.6567 46.7812 38.6567C38.8107 38.6567 32.3259 45.1415 32.3259 53.112C32.3259 61.0825 38.8107 67.5672 46.7812 67.5672ZM46.7812 47.1545C50.0663 47.1545 52.7386 49.8268 52.7386 53.112C52.7386 56.3971 50.0663 59.0695 46.7812 59.0695C43.496 59.0695 40.8237 56.3971 40.8237 53.112C40.8237 49.8268 43.4966 47.1545 46.7812 47.1545Z" fill="#E0E0E0"/>
<path d="M112.193 56.477C120.164 56.477 126.648 49.9922 126.648 42.0217C126.648 34.0507 120.164 27.5659 112.193 27.5659C104.222 27.5659 97.7373 34.0507 97.7373 42.0217C97.7379 49.9922 104.223 56.477 112.193 56.477ZM112.193 36.0637C115.478 36.0637 118.151 38.7366 118.151 42.0217C118.151 45.3069 115.478 47.9792 112.193 47.9792C108.908 47.9792 106.236 45.3069 106.236 42.0217C106.236 38.7366 108.908 36.0637 112.193 36.0637Z" fill="#E0E0E0"/>
</svg>
