<svg width="317" height="60" viewBox="0 0 317 60" fill="none" xmlns="http://www.w3.org/2000/svg">
<g clip-path="url(#clip0_74_1691)">
<g clip-path="url(#clip1_74_1691)">
<path d="M-50 62.7223V46.3738C-32.395 46.3738 -17.305 46.3738 0.299999 46.3738C17.905 46.3738 32.995 13.6768 50.6 13.6768C68.205 13.6768 83.295 13.6768 100.9 13.6768C118.505 13.6768 133.595 35.4748 151.2 35.4748C168.805 35.4748 183.895 35.4748 201.5 35.4748C219.105 35.4748 234.195 2.77783 251.8 2.77783C269.405 2.77783 284.495 2.77783 302.1 2.77783C319.705 2.77783 334.795 40.9243 352.4 40.9243C370.005 40.9243 385.095 40.9243 402.7 40.9243C420.305 40.9243 435.395 22.396 453 22.396C453 22.396 453 22.396 453 62.7223" fill="#A270E6" fill-opacity="0.08"/>
<path d="M-50 46.1112C-32.395 46.1112 -17.305 46.1112 0.299999 46.1112C17.905 46.1112 32.995 13.6112 50.6 13.6112C68.205 13.6112 83.295 13.6112 100.9 13.6112C118.505 13.6112 133.595 35.2778 151.2 35.2778C168.805 35.2778 183.895 35.2778 201.5 35.2778C219.105 35.2778 234.195 2.77783 251.8 2.77783C269.405 2.77783 284.495 2.77783 302.1 2.77783C319.705 2.77783 334.795 40.6945 352.4 40.6945C370.005 40.6945 385.095 40.6945 402.7 40.6945C420.305 40.6945 435.395 22.2778 453 22.2778" stroke="#A270E6" stroke-width="3"/>
</g>
</g>
<defs>
<clipPath id="clip0_74_1691">
<rect width="317" height="60" fill="white"/>
</clipPath>
<clipPath id="clip1_74_1691">
<rect width="467" height="63" fill="white" transform="translate(-62 -3)"/>
</clipPath>
</defs>
</svg>
