<svg width="317" height="60" viewBox="0 0 317 60" fill="none" xmlns="http://www.w3.org/2000/svg">
<g clip-path="url(#clip0_74_1670)">
<g clip-path="url(#clip1_74_1670)">
<path d="M-97 62.7223V46.3738C-78.205 46.3738 -62.095 46.3738 -43.3 46.3738C-24.505 46.3738 -8.395 13.6768 10.4 13.6768C29.195 13.6768 45.305 13.6768 64.1 13.6768C82.895 13.6768 99.005 35.4748 117.8 35.4748C136.595 35.4748 152.705 35.4748 171.5 35.4748C190.295 35.4748 206.405 2.77783 225.2 2.77783C243.995 2.77783 260.105 2.77783 278.9 2.77783C297.695 2.77783 313.805 40.9243 332.6 40.9243C351.395 40.9243 367.505 40.9243 386.3 40.9243C405.095 40.9243 421.205 22.396 440 22.396C440 22.396 440 22.396 440 62.7223" fill="#ED1515" fill-opacity="0.08"/>
<path d="M-97 46.1112C-78.205 46.1112 -62.095 46.1112 -43.3 46.1112C-24.505 46.1112 -8.395 13.6112 10.4 13.6112C29.195 13.6112 45.305 13.6112 64.1 13.6112C82.895 13.6112 99.005 35.2778 117.8 35.2778C136.595 35.2778 152.705 35.2778 171.5 35.2778C190.295 35.2778 206.405 2.77783 225.2 2.77783C243.995 2.77783 260.105 2.77783 278.9 2.77783C297.695 2.77783 313.805 40.6945 332.6 40.6945C351.395 40.6945 367.505 40.6945 386.3 40.6945C405.095 40.6945 421.205 22.2778 440 22.2778" stroke="#ED1515" stroke-width="3"/>
</g>
</g>
<defs>
<clipPath id="clip0_74_1670">
<rect width="317" height="60" fill="white"/>
</clipPath>
<clipPath id="clip1_74_1670">
<rect width="475" height="63" fill="white" transform="translate(-66 -3)"/>
</clipPath>
</defs>
</svg>
