<svg width="176" height="25" viewBox="0 0 176 25" fill="none" xmlns="http://www.w3.org/2000/svg">
<g clip-path="url(#clip0_52_2745)">
<path d="M54.9016 25.0005L43.2313 11.9005V25.0005H40.0781V5.07031H41.8516L53.036 17.5608V5.07031H56.1891V25.0005H54.9016Z" fill="#ED1515"/>
<path d="M34.8406 5.07031H31.6875V25.0005H34.8406V5.07031Z" fill="#ED1515"/>
<path d="M61.0078 5.07031H66.5859C69.0469 5.07031 71.0813 5.56238 72.6906 6.54809C74.2985 7.53381 75.4703 8.80206 76.2078 10.3529C76.9438 11.9052 77.3125 13.556 77.3125 15.3084C77.3125 17.2433 76.8672 18.9449 75.9781 20.4148C75.0891 21.8846 73.8985 23.0164 72.4078 23.81C70.9172 24.6037 69.2906 25.0005 67.5297 25.0005H61.0078V5.07031ZM66.9641 21.9338C68.3656 21.9338 69.6 21.6703 70.6703 21.1402C71.7391 20.6116 72.575 19.8306 73.1766 18.8005C73.7781 17.7687 74.0797 16.5322 74.0797 15.091C74.0797 13.5211 73.7516 12.2116 73.0953 11.1624C72.4391 10.1132 71.6031 9.34175 70.5891 8.84968C69.5734 8.35762 68.5266 8.11 67.45 8.11H64.1625V21.9354H66.9656L66.9641 21.9338Z" fill="#ED1515"/>
<path d="M89.7469 14.7079C89.0375 14.2889 88.1359 13.8746 87.0672 13.4762C86.1 13.1016 85.3016 12.754 84.6922 12.4445C84.1016 12.1445 83.6094 11.7619 83.2313 11.3095C82.8625 10.8698 82.6844 10.346 82.6844 9.70794C82.6844 8.79524 83.0234 8.06826 83.7219 7.48572C84.4234 6.9 85.3797 6.60318 86.5641 6.60318C87.2859 6.60318 88.0375 6.70953 88.7953 6.92064C89.5594 7.13175 90.2625 7.39206 90.8891 7.69206L91.0813 7.78413L91.7781 6.36667L91.5844 6.26825C90.8641 5.90317 90.0297 5.59683 89.1063 5.35873C88.1781 5.12064 87.2703 5 86.4016 5C85.3828 5.01905 84.4438 5.23016 83.6109 5.63016C82.7703 6.03333 82.1063 6.60476 81.6328 7.33016C81.1594 8.05714 80.9172 8.90318 80.9172 9.84445C80.9172 10.7857 81.1703 11.6286 81.6672 12.2778C82.1547 12.9127 82.7641 13.4286 83.4813 13.8111C84.1813 14.1841 85.0766 14.5762 86.1422 14.9714C87.0859 15.327 87.8781 15.6826 88.4953 16.0254C89.0938 16.3587 89.5984 16.8064 89.9953 17.354C90.3828 17.8905 90.5781 18.5651 90.5781 19.3587C90.5781 20.208 90.3641 20.9429 89.9406 21.5413C89.5141 22.1461 88.9531 22.6032 88.275 22.9C86.8031 23.5461 85.1156 23.4905 83.3703 22.8016C82.4359 22.4334 81.6391 21.9968 81.0016 21.5064L80.8047 21.3556L79.9688 22.8333L80.1391 22.9476C82.1344 24.281 84.1813 24.9572 86.2188 24.9572C87.4 24.9572 88.4672 24.7222 89.3891 24.2588C90.3188 23.7921 91.05 23.1222 91.5672 22.2714C92.0828 21.4191 92.3453 20.4302 92.3453 19.3302C92.3453 18.173 92.0906 17.208 91.5891 16.4619C91.0953 15.727 90.4766 15.1365 89.75 14.7064" fill="#ED1515"/>
<path d="M134.755 5.07031H133.016V25.0005H134.755V5.07031Z" fill="#ED1515"/>
<path d="M174.995 5.07031H162.188V6.78301H167.695L167.722 25.0005H169.461L169.434 6.78301H174.995V5.07031Z" fill="#ED1515"/>
<path d="M108.572 6.4973C107.494 5.54968 106.027 5.07031 104.208 5.07031H97.1094V25.0005H98.6969V16.4957H104.075C105.442 16.4957 106.598 16.2211 107.513 15.6783C108.428 15.1354 109.114 14.41 109.55 13.5227C109.983 12.6417 110.203 11.6735 110.203 10.6465C110.203 8.84492 109.653 7.44809 108.57 6.49571M108.214 12.6021C107.933 13.2497 107.445 13.8052 106.763 14.256C106.08 14.7068 105.175 14.9354 104.072 14.9354L98.7422 14.9306V14.9354H98.6938V6.62746H98.7422V6.63222L104.338 6.62746C105.694 6.62746 106.763 7.00047 107.513 7.7354C108.261 8.46873 108.641 9.4481 108.641 10.6465C108.641 11.2894 108.497 11.9481 108.214 12.6021Z" fill="#ED1515"/>
<path d="M21.4156 5.07031L14.0672 22.6068L10.1719 13.3116L8.35156 17.6544L11.4297 25.0005H16.7031L23.236 9.41317V25.0005H26.4625V5.07031H21.4156Z" fill="#ED1515"/>
<path d="M11.9922 5.07031H8.35157L0 25.0005H3.64063L10.1719 9.41317L14.0672 18.7084L15.8875 14.3656L11.9922 5.07031Z" fill="#ED1515"/>
<path d="M126.113 25.0021H127.819L127.805 24.9783L122.495 16.4005C123.305 16.2783 124.019 16.0386 124.623 15.6799C125.539 15.1354 126.225 14.4116 126.661 13.5243C127.095 12.6433 127.314 11.6751 127.314 10.6481C127.314 8.84651 126.764 7.44968 125.681 6.4973C124.603 5.54968 123.136 5.07031 121.317 5.07031H114.219V25.0005H115.806V16.4957H120.795L126.098 24.9767L126.113 25.0005V25.0021ZM115.855 14.9338V14.9386H115.806V6.63063H115.855V6.6354L121.45 6.63063C122.806 6.63063 123.875 7.00365 124.625 7.73857C125.373 8.47349 125.753 9.45127 125.753 10.6497C125.753 11.2925 125.609 11.9513 125.327 12.6052C125.045 13.2529 124.558 13.8084 123.875 14.2592C123.192 14.71 122.288 14.9386 121.184 14.9386L115.855 14.9338Z" fill="#ED1515"/>
<path d="M156.452 5.05469V21.8484L152.144 16.5849L149.386 13.2134L142.987 5.3531V5.35151L142.809 5.13405L142.756 5.07056H141.262L141.234 25.0007H142.987V8.20866L148.669 15.1468L156.819 24.9865H158.177L158.205 5.05469H156.452Z" fill="#ED1515"/>
</g>
<defs>
<clipPath id="clip0_52_2745">
<rect width="176" height="25" fill="white"/>
</clipPath>
</defs>
</svg>
