<svg width="317" height="60" viewBox="0 0 317 60" fill="none" xmlns="http://www.w3.org/2000/svg">
<g clip-path="url(#clip0_74_219)">
<g clip-path="url(#clip1_74_219)">
<path d="M-68 62.7223V46.3738C-51.235 46.3738 -36.865 46.3738 -20.1 46.3738C-3.335 46.3738 11.035 13.6768 27.8 13.6768C44.565 13.6768 58.935 13.6768 75.7 13.6768C92.465 13.6768 106.835 35.4748 123.6 35.4748C140.365 35.4748 154.735 35.4748 171.5 35.4748C188.265 35.4748 202.635 2.77783 219.4 2.77783C236.165 2.77783 250.535 2.77783 267.3 2.77783C284.065 2.77783 298.435 40.9243 315.2 40.9243C331.965 40.9243 346.335 40.9243 363.1 40.9243C379.865 40.9243 394.235 22.396 411 22.396C411 22.396 411 22.396 411 62.7223" fill="#39A89F" fill-opacity="0.08"/>
<path d="M-68 46.1112C-51.235 46.1112 -36.865 46.1112 -20.1 46.1112C-3.335 46.1112 11.035 13.6112 27.8 13.6112C44.565 13.6112 58.935 13.6112 75.7 13.6112C92.465 13.6112 106.835 35.2778 123.6 35.2778C140.365 35.2778 154.735 35.2778 171.5 35.2778C188.265 35.2778 202.635 2.77783 219.4 2.77783C236.165 2.77783 250.535 2.77783 267.3 2.77783C284.065 2.77783 298.435 40.6945 315.2 40.6945C331.965 40.6945 346.335 40.6945 363.1 40.6945C379.865 40.6945 394.235 22.2778 411 22.2778" stroke="#39A89F" stroke-width="3"/>
</g>
</g>
<defs>
<clipPath id="clip0_74_219">
<rect width="317" height="60" fill="white"/>
</clipPath>
<clipPath id="clip1_74_219">
<rect width="435" height="63" fill="white" transform="translate(-46 -3)"/>
</clipPath>
</defs>
</svg>
