<svg width="40" height="40" viewBox="0 0 40 40" fill="none" xmlns="http://www.w3.org/2000/svg">
<g clip-path="url(#clip0_64_80)">
<path d="M13.225 1.04167V19.7917C8.31667 19.5333 3.775 17.8917 0 15.2333C1.65 8.56667 6.69167 3.20834 13.225 1.04167Z" fill="#ED1515"/>
<path d="M13.2249 27.25V39.05C6.98328 36.975 2.09994 31.9833 0.233276 25.725C3.36661 26.8083 6.74161 27.4 10.2583 27.4C11.2583 27.4 12.2499 27.35 13.2249 27.25Z" fill="#ED1515"/>
<path d="M17.7333 29.5333V40C16.1666 39.85 14.6583 39.525 13.225 39.05V27.25C13.7666 27.2083 14.3 27.1417 14.8333 27.0583C16.3583 26.8333 17.7333 28.0083 17.7333 29.5333Z" fill="#D51313"/>
<path d="M26.7666 1.24167V16.7833C23.1666 18.725 19.0333 19.8333 14.625 19.8333C14.1583 19.8333 13.6916 19.8167 13.225 19.7917V1.04167C15.2583 0.366667 17.4333 0 19.7 0C22.1833 0 24.5666 0.441667 26.7666 1.24167Z" fill="#D51313"/>
<path d="M26.7667 22.5833V38.8333C25.5 39.3083 24.175 39.65 22.8083 39.8583V26.2917C22.8083 25.3667 23.3167 24.5083 24.15 24.0833C25.05 23.625 25.925 23.125 26.7667 22.5833Z" fill="#D51313"/>
<path d="M36.0584 8.175C33.7584 11.7667 30.5584 14.7417 26.7667 16.7833V1.24167C30.5084 2.625 33.7251 5.05 36.0584 8.175Z" fill="#BE1111"/>
<path d="M40.0001 20.05C40.0001 28.6583 34.4917 36.0083 26.7667 38.8333V22.5833C31.3834 19.6417 35.1417 15.4833 37.5834 10.575C39.1251 13.3917 40.0001 16.625 40.0001 20.05Z" fill="#BE1111"/>
</g>
<defs>
<clipPath id="clip0_64_80">
<rect width="40" height="40" fill="white"/>
</clipPath>
</defs>
</svg>
