<svg width="32" height="32" viewBox="0 0 32 32" fill="none" xmlns="http://www.w3.org/2000/svg">
<g clip-path="url(#clip0_67_4807)">
<path d="M10.58 0.833374V15.8334C6.65333 15.6267 3.02 14.3134 0 12.1867C1.32 6.85337 5.35333 2.56671 10.58 0.833374Z" fill="#FAFAFA"/>
<path d="M10.58 21.8V31.24C5.58667 29.58 1.68 25.5866 0.186666 20.58C2.69333 21.4466 5.39333 21.92 8.20667 21.92C9.00667 21.92 9.8 21.88 10.58 21.8Z" fill="#FAFAFA"/>
<path d="M14.1867 23.6267V32C12.9333 31.88 11.7267 31.62 10.58 31.24V21.8C11.0133 21.7667 11.44 21.7133 11.8667 21.6467C13.0867 21.4667 14.1867 22.4067 14.1867 23.6267Z" fill="#F5F5F5"/>
<path d="M21.4133 0.993333V13.4267C18.5333 14.98 15.2267 15.8667 11.7 15.8667C11.3267 15.8667 10.9533 15.8533 10.58 15.8333V0.833333C12.2067 0.293333 13.9467 0 15.76 0C17.7467 0 19.6533 0.353333 21.4133 0.993333Z" fill="#F5F5F5"/>
<path d="M21.4133 18.0667V31.0666C20.4 31.4466 19.34 31.72 18.2467 31.8867V21.0333C18.2467 20.2933 18.6533 19.6066 19.32 19.2666C20.04 18.9 20.74 18.5 21.4133 18.0667Z" fill="#F5F5F5"/>
<path d="M28.8467 6.53995C27.0067 9.41329 24.4467 11.7933 21.4133 13.4266V0.993286C24.4067 2.09995 26.98 4.03995 28.8467 6.53995Z" fill="#EEEEEE"/>
<path d="M32 16.04C32 22.9266 27.5933 28.8066 21.4133 31.0666V18.0666C25.1067 15.7133 28.1133 12.3866 30.0667 8.45996C31.3 10.7133 32 13.3 32 16.04Z" fill="#EEEEEE"/>
</g>
<defs>
<clipPath id="clip0_67_4807">
<rect width="32" height="32" fill="white"/>
</clipPath>
</defs>
</svg>
