<svg width="20" height="20" viewBox="0 0 20 20" fill="none" xmlns="http://www.w3.org/2000/svg">
<path d="M1.66671 4.39165L2.73337 3.33331L16.6667 17.2666L15.6084 18.3333L13.0417 15.7666C12.0834 16.0833 11.0667 16.25 10 16.25C5.83337 16.25 2.27504 13.6583 0.833374 9.99998C1.40837 8.53331 2.32504 7.24165 3.49171 6.21665L1.66671 4.39165ZM10 7.49998C10.6631 7.49998 11.299 7.76337 11.7678 8.23221C12.2366 8.70105 12.5 9.33694 12.5 9.99998C12.5 10.2916 12.45 10.575 12.3584 10.8333L9.16671 7.64165C9.42504 7.54998 9.70837 7.49998 10 7.49998ZM10 3.74998C14.1667 3.74998 17.725 6.34165 19.1667 9.99998C18.4834 11.7333 17.325 13.2333 15.8334 14.325L14.65 13.1333C15.7834 12.35 16.7167 11.2833 17.35 9.99998C15.975 7.19998 13.1334 5.41665 10 5.41665C9.09171 5.41665 8.20004 5.56665 7.36671 5.83331L6.08337 4.55831C7.28337 4.04165 8.60837 3.74998 10 3.74998ZM2.65004 9.99998C4.02504 12.8 6.86671 14.5833 10 14.5833C10.575 14.5833 11.1417 14.525 11.6667 14.4083L9.76671 12.5C8.57504 12.375 7.62504 11.425 7.50004 10.2333L4.66671 7.39165C3.84171 8.09998 3.15004 8.98331 2.65004 9.99998Z" fill="#555555"/>
</svg>
